<?xml version="1.0" standalone="no"?>
<!DOCTYPE svg PUBLIC "-//W3C//DTD SVG 20010904//EN"
 "http://www.w3.org/TR/2001/REC-SVG-20010904/DTD/svg10.dtd">
<svg version="1.0" xmlns="http://www.w3.org/2000/svg"
 width="500.000000pt" height="500.000000pt" viewBox="0 0 500.000000 500.000000"
 preserveAspectRatio="xMidYMid meet">

<g transform="translate(0.000000,500.000000) scale(0.100000,-0.100000)"
fill="#387ADF" stroke="none">
<path d="M2275 4030 c-116 -23 -258 -70 -360 -120 -224 -108 -466 -320 -623
-543 -237 -338 -317 -731 -233 -1143 48 -235 137 -398 356 -652 104 -121 118
-145 111 -203 -2 -25 -30 -110 -60 -188 -71 -180 -72 -231 -9 -231 13 0 111
52 218 115 249 148 314 180 405 204 94 24 232 41 330 41 185 0 254 29 408 174
116 109 224 187 327 236 193 92 327 93 370 4 32 -69 12 -127 -76 -219 -136
-142 -348 -255 -593 -316 -59 -15 -129 -22 -259 -26 -198 -6 -311 5 -445 43
-45 13 -90 24 -100 24 -24 0 -62 -28 -62 -45 0 -38 195 -99 385 -121 248 -30
500 5 740 102 339 137 627 408 778 735 95 204 126 341 134 589 5 160 2 202
-15 305 -54 306 -193 578 -413 809 -118 124 -208 194 -352 274 -120 66 -313
134 -451 157 -126 21 -394 19 -511 -5z m501 -95 c164 -28 323 -87 417 -155 24
-17 78 -43 120 -59 105 -39 162 -75 229 -141 75 -75 120 -147 200 -320 127
-273 167 -424 175 -660 12 -336 -58 -560 -175 -560 -53 0 -87 28 -101 84 -7
27 -11 142 -11 288 0 165 -5 277 -16 348 -8 58 -19 211 -24 340 -7 203 -11
244 -30 298 -32 90 -95 170 -177 225 -146 97 -240 113 -623 104 -359 -8 -409
-24 -523 -165 -111 -138 -199 -207 -317 -250 -78 -28 -189 -39 -247 -23 -61
17 -103 68 -103 128 0 70 31 123 124 210 146 137 333 237 536 286 134 33 137
34 311 36 92 0 179 -5 235 -14z m493 -382 c69 -22 133 -79 160 -144 70 -161
-21 -350 -193 -400 -17 -5 -178 -9 -359 -9 -312 0 -330 1 -377 21 -88 38 -165
143 -177 239 -14 122 74 249 204 296 29 10 116 13 364 14 279 0 334 -2 378
-17z m-1800 -254 c49 -46 47 -102 -6 -149 -18 -16 -45 -30 -59 -30 -62 0 -114
60 -100 116 4 15 20 39 36 55 36 36 94 40 129 8z m608 -148 c60 -30 97 -65
139 -129 107 -165 161 -187 484 -201 290 -12 290 -12 630 -254 l180 -128 0
-40 c0 -53 -21 -99 -59 -132 -27 -23 -42 -27 -91 -27 -56 0 -78 10 -776 361
-440 221 -732 373 -751 392 -64 61 -32 149 64 176 53 14 133 7 180 -18z m-707
-134 c54 -42 60 -93 35 -277 -26 -190 -18 -406 26 -687 12 -74 11 -86 -4 -118
-14 -30 -22 -35 -51 -35 -77 0 -158 125 -212 325 -25 92 -27 115 -28 300 -1
160 3 214 17 270 39 152 97 235 166 235 20 0 43 -6 51 -13z m401 -184 c74 -23
1397 -684 1436 -717 81 -69 101 -169 49 -245 -39 -56 -112 -91 -189 -91 -133
0 -181 35 -262 189 -64 123 -105 168 -194 210 l-56 26 -425 5 c-421 5 -425 5
-478 29 -105 48 -172 166 -172 305 0 116 46 231 108 272 56 37 106 41 183 17z
m764 -822 c102 -48 155 -129 155 -236 0 -122 -76 -230 -194 -274 -54 -20 -74
-21 -384 -21 -324 0 -327 0 -378 24 -114 53 -178 147 -178 261 0 110 57 194
169 246 l60 29 345 0 345 0 60 -29z m1173 -97 c47 -33 50 -102 6 -149 -59 -64
-161 0 -146 92 9 59 90 92 140 57z"/>
<path d="M3140 3330 c-39 -39 -11 -110 43 -110 52 0 76 71 37 110 -11 11 -29
20 -40 20 -11 0 -29 -9 -40 -20z"/>
<path d="M2547 3322 c-23 -25 -21 -58 3 -82 39 -39 100 -14 100 43 0 52 -68
78 -103 39z"/>
<path d="M2847 3322 c-53 -58 28 -137 83 -82 26 26 25 52 -3 78 -28 27 -58 28
-80 4z"/>
<path d="M1776 1798 c-21 -30 -20 -54 4 -78 41 -41 100 -13 100 46 0 39 -16
54 -56 54 -23 0 -38 -7 -48 -22z"/>
<path d="M2080 1800 c-11 -11 -20 -29 -20 -40 0 -50 79 -79 113 -42 55 61 -35
140 -93 82z"/>
<path d="M2387 1802 c-26 -28 -21 -69 9 -88 53 -35 113 21 86 81 -9 19 -19 25
-45 25 -20 0 -41 -7 -50 -18z"/>
</g>
</svg>
